Patient4_TMGait_0pt7_01_left_14_GRF.mot
version=1
nRows=71
nColumns=19
inDegrees=no
endheader
time	F1x	F1y	F1z	M1x	M1y	M1z	F2x	F2y	F2z	M2x	M2y	M2z	EC1x	EC1y	EC1z	EC2x	EC2y	EC2z
16.07	2.1886	-8.5437	5.7456	-0.54127	-2.0779	-3.7534	-29.8446	730.2039	-61.2674	249.8636	87.8283	818.7688	-0.0592	0.0182	-0.0073	-0.0462	0.0165	0.9585
16.0811	1.453	-4.6023	4.0246	-0.80817	-1.4605	-1.2344	-31.4182	718.43	-64.8285	247.4669	89.1625	803.2912	-0.0592	0.0182	-0.0073	-0.0462	0.0165	0.9585
16.0921	0.82112	-1.2563	2.5283	-1.0238	-0.9327	0.92876	-32.6269	708.7362	-67.8106	245.4575	90.0689	789.4315	-0.0592	0.0182	-0.0073	-0.0462	0.0165	0.9585
16.1032	0.33474	1.3132	1.3615	-1.1912	-0.52521	2.6086	-33.4378	702.2155	-70.0183	244.1608	90.5152	778.4422	-0.0592	0.0182	-0.0073	-0.0462	0.0165	0.9585
16.1143	-0.0046154	3.1069	0.54755	-1.3147	-0.2572	3.8053	-33.8472	699.1936	-71.4677	243.7481	90.5505	770.7413	-0.0592	0.0182	-0.0073	-0.0462	0.0165	0.9585
16.1254	-0.22087	4.2248	0.037775	-1.3996	-0.11112	4.5661	-33.7934	699.3661	-72.2398	244.2209	90.1823	766.028	-0.0592	0.0182	-0.0073	-0.0462	0.0165	0.9585
16.1364	-0.35703	4.8226	-0.2223	-1.4517	-0.079531	4.9798	-33.1799	702.0111	-72.4426	245.4405	89.3933	763.5264	-0.0592	0.0182	-0.0073	-0.0462	0.0165	0.9585
16.1475	-0.44265	5.0169	-0.29689	-1.465	-0.13887	5.0971	-31.8356	706.1818	-72.2044	247.1774	88.1483	762.1774	-0.0592	0.0182	-0.0073	-0.0462	0.0165	0.9585
16.1586	-0.52463	4.9143	-0.24577	-1.4327	-0.26741	4.9709	-29.56	710.9748	-71.6345	249.1949	86.3949	760.9714	-0.0592	0.0182	-0.0073	-0.0462	0.0165	0.9585
16.1696	-0.6203	4.5259	-0.10765	-1.3268	-0.4521	4.5651	-26.1587	715.7218	-70.8135	251.3195	84.0732	759.1474	-0.0592	0.0182	-0.0073	-0.0462	0.0165	0.9585
16.1807	-0.75282	3.8445	0.07295	-1.1193	-0.67287	3.836	-21.5256	720.1649	-69.7693	253.4998	81.1239	756.423	-0.0592	0.0182	-0.0073	-0.0462	0.0165	0.9585
16.1918	-0.91007	2.7965	0.27251	-0.77059	-0.91787	2.6754	-15.6961	724.4028	-68.5357	255.7905	77.5579	752.9217	-0.0592	0.0182	-0.0073	-0.0462	0.0165	0.9585
16.2029	-1.0815	1.3131	0.46853	-0.24998	-1.1631	0.99506	-8.834	728.8159	-67.1789	258.3172	73.4813	749.1222	-0.0592	0.0182	-0.0073	-0.0462	0.0165	0.9585
16.2139	-1.2132	-0.64737	0.62631	0.45576	-1.3578	-1.2737	-1.2339	733.8039	-65.8141	261.1925	69.0998	745.5806	-0.0592	0.0182	-0.0073	-0.0462	0.0165	0.9585
16.225	-1.2449	-3.0376	0.71767	1.3225	-1.4421	-4.0723	6.7488	739.6485	-64.622	264.4629	64.7083	742.7612	-0.0592	0.0182	-0.0073	-0.0462	0.0165	0.9585
16.2361	-1.0582	-5.6504	0.66958	2.2653	-1.2918	-7.1642	14.7161	746.3415	-63.7583	268.0573	60.5927	740.8573	-0.0592	0.0182	-0.0073	-0.0462	0.0165	0.9585
16.2471	-0.52954	-8.0267	0.40038	3.1103	-0.75933	-9.9944	22.275	753.5243	-63.3567	271.7737	57.0154	739.7424	-0.0592	0.0182	-0.0073	-0.0462	0.0165	0.9585
16.2582	0.50832	-9.3549	-0.21399	3.553	0.36331	-11.595	29.0344	760.4974	-63.4832	275.2882	54.173	738.9619	-0.0592	0.0182	-0.0073	-0.0462	0.0165	0.9585
16.2693	2.2133	-8.3803	-1.2991	3.1279	2.2896	-10.4773	34.6639	766.2639	-64.1083	278.1807	52.1517	737.7464	-0.0592	0.0182	-0.0073	-0.0462	0.0165	0.9585
16.2804	4.7249	-3.3677	-2.9843	1.1964	5.2265	-4.5825	38.9383	769.7346	-65.1472	280.0045	50.9592	735.226	-0.0592	0.0182	-0.0073	-0.0462	0.0165	0.9585
16.2914	8.081	7.8675	-5.3519	-3.0356	9.2816	8.6906	41.7156	769.7941	-66.4399	280.3257	50.5047	730.4481	-0.0592	0.0182	-0.0073	-0.0462	0.0165	0.9585
16.3025	12.1284	27.7398	-8.3769	-10.4396	14.3626	32.2258	42.9737	765.4805	-67.78	278.7841	50.6202	722.5716	-0.0592	0.0182	-0.0073	-0.0462	0.0165	0.9585
16.3136	16.4071	58.4652	-11.8335	-21.8021	20.0215	68.6957	42.7919	756.012	-68.8792	275.1137	51.0295	710.8622	-0.0592	0.0182	-0.0073	-0.0462	0.0165	0.9585
16.3246	19.9969	101.3047	-15.1892	-37.5453	25.2768	119.6486	41.3638	740.867	-69.3983	269.1697	51.3732	694.7683	-0.0592	0.0182	-0.0073	-0.0462	0.0165	0.9585
16.3357	21.3892	155.4656	-17.4774	-57.321	28.4081	184.2012	38.9945	719.7619	-68.9747	260.9207	51.2339	673.894	-0.0592	0.0182	-0.0073	-0.0462	0.0165	0.9585
16.3468	18.681	217.1099	-17.334	-79.6433	27.1255	257.8255	36.0233	692.6507	-67.2635	250.4367	50.1998	648.0258	-0.0592	0.0182	-0.0073	-0.0462	0.0165	0.9585
16.3579	11.277	279.5723	-13.4498	-102.0264	19.7148	332.5563	32.8062	659.7331	-64.0446	237.8806	47.9655	617.1444	-0.0592	0.0182	-0.0073	-0.0462	0.0165	0.9585
16.3689	1.0086	336.4887	-5.6392	-122.1973	6.7293	400.5125	29.661	621.5061	-59.2989	223.5086	44.4181	581.5106	-0.0592	0.0182	-0.0073	-0.0462	0.0165	0.9585
16.38	-10.0419	385.3297	4.451	-139.317	-9.1758	458.2721	26.8634	578.7511	-53.2723	207.6483	39.6936	541.6799	-0.0592	0.0182	-0.0073	-0.0462	0.0165	0.9585
16.3911	-20.3862	426.6905	15.5782	-153.6751	-25.9304	506.2614	24.5998	532.3334	-46.4497	190.6241	34.1562	498.355	-0.0592	0.0182	-0.0073	-0.0462	0.0165	0.9585
16.4021	-28.8929	462.5776	26.295	-166.084	-41.4654	546.7259	22.9281	483.043	-39.3817	172.708	28.2602	452.2201	-0.0592	0.0182	-0.0073	-0.0462	0.0165	0.9585
16.4132	-34.8735	494.6045	35.4945	-177.2047	-54.2534	581.6523	21.7109	431.6352	-32.4883	154.1446	22.4051	404.0109	-0.0592	0.0182	-0.0073	-0.0462	0.0165	0.9585
16.4243	-38.0345	523.3782	42.4998	-187.3027	-63.4097	611.8949	20.7241	378.8509	-26.0461	135.1759	16.9046	354.464	-0.0592	0.0182	-0.0073	-0.0462	0.0165	0.9585
16.4354	-38.3346	548.6052	46.9642	-196.291	-68.5626	637.2253	19.6237	325.6595	-20.1673	116.1231	11.9653	304.5671	-0.0592	0.0182	-0.0073	-0.0462	0.0165	0.9585
16.4464	-36.0021	569.9109	49.3639	-203.9956	-70.3267	657.3723	18.1349	273.2555	-14.9432	97.3949	7.7636	255.468	-0.0592	0.0182	-0.0073	-0.0462	0.0165	0.9585
16.4575	-31.4555	587.4701	50.2614	-210.4202	-69.5363	672.7016	16.0033	223.0925	-10.4652	79.4932	4.4571	208.573	-0.0592	0.0182	-0.0073	-0.0462	0.0165	0.9585
16.4686	-25.3033	602.1476	50.5258	-215.7991	-67.3937	684.4182	13.24	176.6854	-6.8352	62.9453	2.129	165.2796	-0.0592	0.0182	-0.0073	-0.0462	0.0165	0.9585
16.4796	-18.2377	615.1471	50.8418	-220.4978	-64.9356	694.0726	10.0077	135.376	-4.0957	48.2164	0.74788	126.8197	-0.0592	0.0182	-0.0073	-0.0462	0.0165	0.9585
16.4907	-11.0259	627.4577	51.7642	-224.8212	-63.0648	702.9612	6.7164	99.9956	-2.1762	35.6009	0.11429	93.903	-0.0592	0.0182	-0.0073	-0.0462	0.0165	0.9585
16.5018	-4.4004	639.8272	53.6458	-229.0049	-62.4249	712.0726	3.696	70.8163	-0.95198	25.1961	0.0050023	66.76	-0.0592	0.0182	-0.0073	-0.0462	0.0165	0.9585
16.5129	1.0922	652.8707	56.3621	-233.2713	-63.0837	722.1855	1.2207	47.6143	-0.21925	16.9302	0.1516	45.1589	-0.0592	0.0182	-0.0073	-0.0462	0.0165	0.9585
16.5239	5.1109	667.1579	59.6687	-237.8378	-64.8863	733.9893	-0.59284	29.8957	0.16054	10.6279	0.39162	28.656	-0.0592	0.0182	-0.0073	-0.0462	0.0165	0.9585
16.535	7.5504	682.9463	63.0749	-242.8326	-67.3442	747.7559	-1.6765	17.0017	0.31126	6.0542	0.59217	16.6351	-0.0592	0.0182	-0.0073	-0.0462	0.0165	0.9585
16.5461	8.4377	700.0519	66.3343	-248.2105	-70.1675	763.272	-2.0864	8.2481	0.32401	2.9586	0.68606	8.4689	-0.0592	0.0182	-0.0073	-0.0462	0.0165	0.9585
16.5571	7.935	717.7939	69.404	-253.7446	-73.2327	779.7202	-2.0307	2.8996	0.25679	1.074	0.691	3.4661	-0.0592	0.0182	-0.0073	-0.0462	0.0165	0.9585
16.5682	6.325	735.2923	72.3377	-259.1317	-76.489	796.065	-1.741	0.13512	0.1686	0.10578	0.63112	0.87375	-0.0592	0.0182	-0.0073	-0.0462	0.0165	0.9585
16.5793	3.9739	751.7503	75.2149	-264.1053	-79.8817	811.3297	-1.3555	-0.85966	0.063718	-0.2363	0.55507	-0.059147	-0.0592	0.0182	-0.0073	-0.0462	0.0165	0.9585
16.5904	1.2117	766.6105	77.8592	-268.4996	-83.1133	824.8076	-0.97755	-0.76889	-0.021383	-0.19454	0.46641	0.040251	-0.0592	0.0182	-0.0073	-0.0462	0.0165	0.9585
16.6014	-1.602	779.5144	80.1199	-272.2193	-85.9033	836.0164	-0.65666	-0.10741	-0.089411	0.04631	0.3896	0.68331	-0.0592	0.0182	-0.0073	-0.0462	0.0165	0.9585
16.6125	-4.1916	790.1698	81.7618	-275.1925	-87.917	844.5934	-0.41568	0.77346	-0.12395	0.36201	0.32259	1.5423	-0.0592	0.0182	-0.0073	-0.0462	0.0165	0.9585
16.6236	-6.2836	798.2674	82.721	-277.3289	-89.0007	850.1796	-0.25633	1.6603	-0.14145	0.67487	0.28159	2.4168	-0.0592	0.0182	-0.0073	-0.0462	0.0165	0.9585
16.6346	-7.7277	803.447	83.0267	-278.5113	-89.1366	852.4089	-0.15908	2.4437	-0.14359	0.94656	0.25751	3.2043	-0.0592	0.0182	-0.0073	-0.0462	0.0165	0.9585
16.6457	-8.4046	805.405	82.7225	-278.64	-88.3507	850.9644	-0.12068	3.085	-0.13605	1.1653	0.247	3.8732	-0.0592	0.0182	-0.0073	-0.0462	0.0165	0.9585
16.6568	-8.2922	804.0294	81.9371	-277.6777	-86.7782	845.7591	-0.11366	3.587	-0.13264	1.3343	0.25213	4.4165	-0.0592	0.0182	-0.0073	-0.0462	0.0165	0.9585
16.6679	-7.3986	799.4501	80.7037	-275.6752	-84.4772	836.9447	-0.14469	3.972	-0.12398	1.4647	0.25973	4.8529	-0.0592	0.0182	-0.0073	-0.0462	0.0165	0.9585
16.6789	-5.7924	792.0458	79.1601	-272.7622	-81.6199	824.9679	-0.18192	4.264	-0.12695	1.5656	0.27819	5.1916	-0.0592	0.0182	-0.0073	-0.0462	0.0165	0.9585
16.69	-3.5687	782.3319	77.3864	-269.1184	-78.3326	810.4079	-0.24348	4.4822	-0.12622	1.6453	0.29625	5.449	-0.0592	0.0182	-0.0073	-0.0462	0.0165	0.9585
16.7011	-0.85688	770.9185	75.5122	-264.9463	-74.7951	793.952	-0.29489	4.6251	-0.13319	1.7028	0.31824	5.6062	-0.0592	0.0182	-0.0073	-0.0462	0.0165	0.9585
16.7121	2.2294	758.4332	73.6396	-260.4554	-71.1531	776.2954	-0.35538	4.6865	-0.14463	1.7324	0.34539	5.6609	-0.0592	0.0182	-0.0073	-0.0462	0.0165	0.9585
16.7232	5.5993	745.5245	71.8208	-255.8626	-67.5003	758.1378	-0.40096	4.6132	-0.16304	1.7128	0.37726	5.5363	-0.0592	0.0182	-0.0073	-0.0462	0.0165	0.9585
16.7343	9.2129	732.8374	70.1473	-251.3826	-63.9462	740.1663	-0.44883	4.333	-0.20688	1.6137	0.43611	5.1599	-0.0592	0.0182	-0.0073	-0.0462	0.0165	0.9585
16.7454	13.0672	721.0505	68.6313	-247.2381	-60.5122	723.0816	-0.47399	3.7263	-0.27168	1.3907	0.51177	4.3757	-0.0592	0.0182	-0.0073	-0.0462	0.0165	0.9585
16.7564	17.16	710.8516	67.3887	-243.646	-57.3074	707.6003	-0.48695	2.6783	-0.36551	0.9973	0.61167	3.0703	-0.0592	0.0182	-0.0073	-0.0462	0.0165	0.9585
16.7675	21.5024	702.9451	66.4654	-240.8281	-54.3715	694.4395	-0.44934	1.0471	-0.46941	0.38049	0.70289	1.0677	-0.0592	0.0182	-0.0073	-0.0462	0.0165	0.9585
16.7786	26.0686	697.9659	65.9547	-238.9739	-51.7939	684.2449	-0.35441	-1.233	-0.56319	-0.48904	0.75668	-1.714	-0.0592	0.0182	-0.0073	-0.0462	0.0165	0.9585
16.7896	30.807	696.3607	65.9121	-238.2062	-49.635	677.4726	-0.14081	-4.1632	-0.61535	-1.6088	0.71323	-5.2954	-0.0592	0.0182	-0.0073	-0.0462	0.0165	0.9585
16.8007	35.6205	698.253	66.3679	-238.5339	-47.9402	674.2558	0.22515	-7.5479	-0.58222	-2.9038	0.50392	-9.4289	-0.0592	0.0182	-0.0073	-0.0462	0.0165	0.9585
16.8118	40.3722	703.3214	67.3523	-239.8154	-46.7668	674.3097	0.80022	-10.9365	-0.42701	-4.1955	0.060891	-13.5724	-0.0592	0.0182	-0.0073	-0.0462	0.0165	0.9585
16.8229	44.9108	710.8106	68.7975	-241.7723	-46.0921	676.9326	1.603	-13.4484	-0.08379	-5.141	-0.69765	-16.6497	-0.0592	0.0182	-0.0073	-0.0462	0.0165	0.9585
16.8339	49.0817	719.5644	70.6408	-244.0046	-45.909	681.0714	2.624	-13.7051	0.49551	-5.2012	-1.8214	-17.0007	-0.0592	0.0182	-0.0073	-0.0462	0.0165	0.9585
16.845	52.798	728.2296	72.6963	-246.064	-46.081	685.4663	3.7727	-9.6883	1.3619	-3.5938	-3.3207	-12.1834	-0.0592	0.0182	-0.0073	-0.0462	0.0165	0.9585
